<svg id="visual" viewBox="0 0 900 600" width="900" height="600" xmlns="http://www.w3.org/2000/svg" xmlns:xlink="http://www.w3.org/1999/xlink" version="1.1"><rect x="0" y="0" width="900" height="600" fill="#001220"></rect><path d="M0 444L21.5 438.3C43 432.7 86 421.3 128.8 418C171.7 414.7 214.3 419.3 257.2 415.3C300 411.3 343 398.7 385.8 397.7C428.7 396.7 471.3 407.3 514.2 414.2C557 421 600 424 642.8 424C685.7 424 728.3 421 771.2 408.7C814 396.3 857 374.7 878.5 363.8L900 353L900 601L878.5 601C857 601 814 601 771.2 601C728.3 601 685.7 601 642.8 601C600 601 557 601 514.2 601C471.3 601 428.7 601 385.8 601C343 601 300 601 257.2 601C214.3 601 171.7 601 128.8 601C86 601 43 601 21.5 601L0 601Z" fill="#fa7268"></path><path d="M0 462L21.5 455.2C43 448.3 86 434.7 128.8 430.7C171.7 426.7 214.3 432.3 257.2 430.2C300 428 343 418 385.8 417.8C428.7 417.7 471.3 427.3 514.2 429.8C557 432.3 600 427.7 642.8 433.3C685.7 439 728.3 455 771.2 464.2C814 473.3 857 475.7 878.5 476.8L900 478L900 601L878.5 601C857 601 814 601 771.2 601C728.3 601 685.7 601 642.8 601C600 601 557 601 514.2 601C471.3 601 428.7 601 385.8 601C343 601 300 601 257.2 601C214.3 601 171.7 601 128.8 601C86 601 43 601 21.5 601L0 601Z" fill="#ef5f67"></path><path d="M0 510L21.5 504.3C43 498.7 86 487.3 128.8 487C171.7 486.7 214.3 497.3 257.2 502.8C300 508.3 343 508.7 385.8 504.5C428.7 500.3 471.3 491.7 514.2 481C557 470.3 600 457.7 642.8 454.3C685.7 451 728.3 457 771.2 466C814 475 857 487 878.5 493L900 499L900 601L878.5 601C857 601 814 601 771.2 601C728.3 601 685.7 601 642.8 601C600 601 557 601 514.2 601C471.3 601 428.7 601 385.8 601C343 601 300 601 257.2 601C214.3 601 171.7 601 128.8 601C86 601 43 601 21.5 601L0 601Z" fill="#e34c67"></path><path d="M0 536L21.5 529.8C43 523.7 86 511.3 128.8 510.3C171.7 509.3 214.3 519.7 257.2 516.7C300 513.7 343 497.3 385.8 496.8C428.7 496.3 471.3 511.7 514.2 514.5C557 517.3 600 507.7 642.8 509C685.7 510.3 728.3 522.7 771.2 525.8C814 529 857 523 878.5 520L900 517L900 601L878.5 601C857 601 814 601 771.2 601C728.3 601 685.7 601 642.8 601C600 601 557 601 514.2 601C471.3 601 428.7 601 385.8 601C343 601 300 601 257.2 601C214.3 601 171.7 601 128.8 601C86 601 43 601 21.5 601L0 601Z" fill="#d53867"></path><path d="M0 528L21.5 527.8C43 527.7 86 527.3 128.8 528.3C171.7 529.3 214.3 531.7 257.2 531.5C300 531.3 343 528.7 385.8 528.5C428.7 528.3 471.3 530.7 514.2 532.2C557 533.7 600 534.3 642.8 536.5C685.7 538.7 728.3 542.3 771.2 545.5C814 548.7 857 551.3 878.5 552.7L900 554L900 601L878.5 601C857 601 814 601 771.2 601C728.3 601 685.7 601 642.8 601C600 601 557 601 514.2 601C471.3 601 428.7 601 385.8 601C343 601 300 601 257.2 601C214.3 601 171.7 601 128.8 601C86 601 43 601 21.5 601L0 601Z" fill="#c62368"></path></svg>